PathFileType	4	(X/Y/Z)	D:\Share\Shared_Data\Ergonomics\Sit To Stand Pertubation\S3\Perturbed.trc
DataRate	CameraRate	NumFrames	NumMarkers	Units	OrigDataRate	OrigDataStartFrame	OrigNumFrames	
100	100	8	18	m	100	3858	231
Frame#	Time	R_ASIS			R_Pelvis			V_Sacral			L_Pelvis			L_ASIS			Clavical			R_Acromium			L_Acromium			Sternum			Torso			R_Thigh_Med			R_Thigh_Lat			R_Thigh			R_Shank_Med			R_Shank_Lat			R_Shank			R_Heel			R_Toe			
		X1	Y1	Z1	X2	Y2	Z2	X3	Y3	Z3	X4	Y4	Z4	X5	Y5	Z5	X6	Y6	Z6	X7	Y7	Z7	X8	Y8	Z8	X9	Y9	Z9	X10	Y10	Z10	X11	Y11	Z11	X12	Y12	Z12	X13	Y13	Z13	X14	Y14	Z14	X15	Y15	Z15	X16	Y16	Z16	X17	Y17	Z17	X18	Y18	Z18	

3858	38.57	0.019563536	0.64385822	0.14552713	-0.090724602	0.6279411	0.1994791	-0.19745343	0.62112787	0.011523001	-0.08082692	0.64468469	-0.18797977	0.027904871	0.64037292	-0.13491299	0.0050030565	1.0397216	-0.0073226776	-0.048859734	1.102806	0.1643555	-0.038005547	1.0976365	-0.16861327	0.028342436	0.96455981	0.0010092708	0.011364976	1.0272644	-0.068617935	0.37044531	0.46458917	0.075982628	0.35400632	0.44727512	0.19403146	0.18785739	0.5777146	0.11337978	0.28797754	0.10871459	0.10346859	0.26616748	0.096991196	0.18445657	0.29547079	0.27373572	0.2049711	0.2101788	0.05128265	0.13367776	0.4276004	0.056612274	0.13497467
3859	38.58	0.019637796	0.64383588	0.14541808	-0.090603081	0.62810962	0.19953523	-0.19736234	0.62141522	0.011553041	-0.080780151	0.64481299	-0.18798114	0.027898481	0.64055615	-0.13482527	0.0058837724	1.0396837	-0.007270051	-0.047943489	1.1027401	0.16442729	-0.03715987	1.0975995	-0.16860228	0.029072163	0.964461	0.0010270054	0.012191608	1.0271897	-0.068613144	0.37034799	0.46455719	0.07560701	0.35396866	0.44729678	0.19368726	0.18777356	0.5777204	0.11315304	0.28799167	0.10868287	0.10339981	0.2661412	0.097100418	0.18438264	0.29540921	0.27376126	0.20476144	0.21016801	0.05135458	0.13373936	0.42758878	0.056612274	0.13496324
3860	38.59	0.019728395	0.64379248	0.14534018	-0.090486603	0.62826801	0.19960387	-0.19724884	0.62171649	0.011582595	-0.080719376	0.6449389	-0.18798283	0.027896013	0.64078052	-0.13470953	0.0068747087	1.0396464	-0.0072092352	-0.046906914	1.102674	0.1645014	-0.036187595	1.0975728	-0.16857755	0.029903299	0.96435626	0.001058082	0.013126109	1.0270997	-0.068599144	0.3702471	0.4645267	0.075244164	0.35392682	0.44729953	0.1933632	0.1876906	0.57771552	0.11294632	0.28800006	0.10864262	0.10332297	0.26612854	0.097189308	0.18429042	0.29534305	0.27377133	0.20455379	0.21015199	0.051539181	0.13389671	0.42757837	0.056612957	0.13494969
3861	38.6	0.019839231	0.64372559	0.1452928	-0.090367393	0.62841339	0.19968008	-0.19711209	0.62202832	0.011611843	-0.080644447	0.64505829	-0.18798228	0.027896624	0.64104877	-0.13456761	0.0079812689	1.0396075	-0.007140348	-0.045741604	1.1026088	0.16457518	-0.035087311	1.0975591	-0.16853873	0.03084057	0.96424579	0.0011003175	0.014173528	1.0269988	-0.068577362	0.37014767	0.4644968	0.07490107	0.35388657	0.44728787	0.19306369	0.18761313	0.57770233	0.11276157	0.28800357	0.10859454	0.10323802	0.26612634	0.097263145	0.18418147	0.2952782	0.27376727	0.20435309	0.21013185	0.05187558	0.13418156	0.42757138	0.056614521	0.13493309
3862	38.61	0.019975758	0.64363544	0.14527257	-0.090234322	0.62854559	0.19975644	-0.19695135	0.62234839	0.011641169	-0.080553734	0.64516919	-0.18797751	0.02790477	0.64135272	-0.13440698	0.0092083778	1.0395621	-0.0070639434	-0.044438705	1.1025458	0.16464685	-0.033859013	1.0975544	-0.16848796	0.031887148	0.96412634	0.0011506737	0.015337834	1.0268904	-0.068548286	0.37005487	0.46446585	0.074586098	0.35385312	0.44726807	0.19279257	0.18754524	0.57768341	0.11260014	0.28800378	0.10854012	0.10314575	0.26613132	0.097327599	0.1840585	0.29522049	0.27375095	0.20416504	0.21010954	0.052389557	0.1346145	0.42756958	0.056616726	0.13491321
3863	38.62	0.020144962	0.6435257	0.14527304	-0.090074791	0.62866693	0.19982434	-0.19676585	0.62267633	0.011670979	-0.080443825	0.6452724	-0.187968	0.027930246	0.64167291	-0.13424028	0.01056102	1.0395044	-0.0069807315	-0.042989628	1.1024846	0.16471492	-0.032501778	1.0975499	-0.16842973	0.033045303	0.96399176	0.0012055163	0.01662237	1.0267765	-0.068512161	0.36997302	0.46443259	0.074307846	0.35383011	0.44724637	0.19255321	0.18749051	0.57766077	0.11246259	0.28800256	0.1084817	0.10304767	0.26614093	0.097387856	0.18392511	0.29517453	0.27372501	0.20399487	0.21008714	0.053075436	0.1351898	0.42757376	0.05661895	0.13489058
3864	38.63	0.020354656	0.64340155	0.14528531	-0.089877975	0.62878186	0.19987686	-0.19655513	0.62301434	0.01170134	-0.080309914	0.64537073	-0.18795508	0.027981157	0.64199945	-0.13407605	0.012044217	1.0394291	-0.0068914313	-0.041387184	1.1024243	0.16477776	-0.031011532	1.0975359	-0.16836841	0.034316826	0.96383527	0.0012612978	0.018030289	1.0266553	-0.068470352	0.36990549	0.46439694	0.074073517	0.35381912	0.44722675	0.19234898	0.18745171	0.57763641	0.11234859	0.28800189	0.10842204	0.10294617	0.26615326	0.097448265	0.18378545	0.29514233	0.2736925	0.20384685	0.2100665	0.053869076	0.1358526	0.42758386	0.056620583	0.13486635
3865	38.64	0.020612894	0.64326953	0.14529936	-0.089636818	0.6288963	0.19991054	-0.19631912	0.62336713	0.011731471	-0.080146446	0.64546881	-0.18794139	0.02806094	0.64233722	-0.13391457	0.01366216	1.0393317	-0.0067975593	-0.039626358	1.1023623	0.16483376	-0.029380798	1.0975038	-0.1683075	0.035703423	0.96365149	0.0013153652	0.019565134	1.0265227	-0.068425758	0.36985434	0.46436063	0.073888138	0.35381989	0.44721027	0.19218402	0.1874304	0.57761237	0.11225706	0.28800391	0.10836429	0.10284461	0.2661666	0.097511131	0.18364441	0.29512332	0.27365677	0.20372403	0.21004953	0.054636139	0.136489	0.42759894	0.056621235	0.13484192
